<?xml version="1.0" encoding="UTF-8"?>
<svg width="153px" height="243px" viewBox="0 0 153 243" version="1.1" xmlns="http://www.w3.org/2000/svg" xmlns:xlink="http://www.w3.org/1999/xlink">
    <title>noun-robot-3206</title>
    <g id="User-Flow-1-Complete" stroke="none" stroke-width="1" fill="none" fill-rule="evenodd" opacity="0.253162202">
        <g id="01-My-Dashboard" transform="translate(-385.000000, -175.000000)" fill-rule="nonzero">
            <g id="noun-robot-3206" transform="translate(385.000000, 175.000000)">
                <ellipse id="Oval" fill="#000000" cx="84.5203993" cy="32.99697" rx="3.09873799" ry="3.09825"></ellipse>
                <path d="M151.890609,155.60748 L151.907621,155.60019 C151.866305,155.49084 151.815267,155.38878 151.77152,155.27943 C151.667014,155.01213 151.555216,154.74969 151.438558,154.49211 C151.338912,154.27584 151.236836,154.06443 151.129899,153.85545 C151.015671,153.62946 150.894152,153.40833 150.770202,153.19206 C150.634101,152.96121 150.50043,152.73522 150.357037,152.51409 C150.237949,152.33427 150.113999,152.15688 149.99248,151.98192 C149.824783,151.74378 149.652226,151.51293 149.469948,151.28451 C149.348428,151.13385 149.219618,150.98319 149.093238,150.83253 C148.898808,150.60897 148.701947,150.38784 148.497794,150.17643 C148.354402,150.03063 148.206149,149.89212 148.057895,149.74875 C147.856173,149.55678 147.654452,149.36967 147.443008,149.19228 C147.26316,149.03919 147.078451,148.89339 146.888881,148.74759 C146.699311,148.59936 146.509741,148.45599 146.315311,148.31748 C146.086855,148.1571 145.853538,148.00644 145.615361,147.86064 C145.447664,147.75615 145.279968,147.65166 145.109841,147.55203 C144.837638,147.39894 144.558144,147.25557 144.27622,147.11463 C144.127966,147.04416 143.982143,146.96883 143.83146,146.90079 L142.43885,138.32289 C144.460929,137.45295 145.649386,136.54413 145.518145,135.79326 L141.797229,115.24032 C141.405938,112.76658 139.619606,108.04509 139.619606,108.04509 L127.509009,83.835 C127.509009,83.835 122.43194,75.05055 115.988995,74.46492 L110.598406,74.60586 L110.55709,74.36529 C109.176632,66.34872 104.473842,67.73139 104.473842,67.73139 L95.9018816,67.73139 L95.9018816,61.6491 L93.4131697,61.6491 C100.441837,61.6491 106.133793,57.6396 106.133793,52.69698 L106.133793,18.62838 C106.133793,13.68576 100.439406,9.67626 93.4131697,9.67626 L90.2342291,9.67626 L90.2342291,0 L62.5886255,0 L62.5886255,9.67626 L59.4121152,9.67626 C52.3858787,9.67626 46.691492,13.68333 46.691492,18.62838 L46.691492,52.69698 C46.691492,57.6396 52.3858787,61.6491 59.4121152,61.6491 L56.9209729,61.6491 L56.9209729,67.72896 L48.349013,67.72896 C48.349013,67.72896 43.6486528,66.34872 42.265765,74.36286 L42.2244485,74.60343 L36.8338596,74.46249 C30.390915,75.04812 25.311415,83.83257 25.311415,83.83257 L13.2056786,108.04266 C13.2056786,108.04266 11.4193473,112.76415 11.0280557,115.23789 L7.30713972,135.79083 C7.17589905,136.5417 8.36192583,137.45052 10.388865,138.32046 L8.99382534,146.89836 C8.84314161,146.9664 8.69731864,147.04173 8.5490653,147.1122 C8.2671409,147.25314 7.98764689,147.39408 7.71544402,147.5496 C7.54288684,147.64923 7.37762082,147.75372 7.20992441,147.85821 C6.9717469,148.00644 6.73843016,148.15467 6.50997418,148.31505 C6.31311318,148.45356 6.12597371,148.59693 5.93640385,148.74516 C5.74926438,148.89096 5.56212491,149.03433 5.38227659,149.18985 C5.17083329,149.36724 4.96911153,149.55435 4.76982014,149.74632 C4.62156679,149.88969 4.47331345,150.0282 4.32992087,150.174 C4.12333833,150.38541 3.92647733,150.60654 3.73447709,150.8301 C3.60566681,150.98076 3.47685652,151.12899 3.35533739,151.28208 C3.17548907,151.5105 3.00293189,151.74135 2.83523548,151.97949 C2.71128596,152.15202 2.58733644,152.33184 2.47067807,152.51166 C2.32728549,152.73522 2.19118406,152.96121 2.05994339,153.18963 C1.93356349,153.40833 1.81204435,153.62946 1.69781636,153.85302 C1.59087952,154.062 1.49123383,154.27341 1.39158814,154.48968 C1.27492976,154.74726 1.16313216,155.0097 1.0586257,155.277 C1.01487881,155.38635 0.961410391,155.48841 0.922524268,155.59776 L0.939536947,155.60505 C0.344093176,157.23558 0.00383959286,158.99004 0.00383959286,160.82712 C-0.100666865,164.60577 1.9457154,170.06841 3.99938881,170.06841 C7.20506364,170.06841 6.05792299,163.76742 6.05792299,160.82712 L6.06278376,160.82712 C6.06278376,159.63642 6.2961005,158.50161 6.70683518,157.45428 C6.76516437,157.30362 6.82592394,157.16025 6.89154427,157.01445 C6.95473422,156.87351 7.02278494,156.735 7.09326604,156.59649 C7.15645599,156.47013 7.22450671,156.34863 7.29498781,156.22956 C7.3800512,156.0789 7.46754498,155.93553 7.55989952,155.78973 C7.62795024,155.6901 7.69600096,155.59047 7.76648206,155.49084 C7.87098851,155.34261 7.98035574,155.19681 8.09458373,155.05344 C8.16506483,154.96353 8.24040669,154.87848 8.31331817,154.79343 C8.42997654,154.65492 8.55392606,154.52127 8.67787558,154.39005 C8.76536936,154.30257 8.85286314,154.21752 8.9427873,154.13247 C9.06430644,154.01826 9.18339519,153.90648 9.30977509,153.79956 C9.4215727,153.70236 9.53823107,153.61245 9.65488944,153.52254 C9.76425667,153.43749 9.87362389,153.35487 9.9854215,153.27225 C10.1336748,153.17019 10.2819282,153.07299 10.4350423,152.98065 C10.5249665,152.92476 10.6148906,152.86887 10.7072452,152.81541 C10.8870935,152.71335 11.0669418,152.61858 11.2540813,152.52867 C11.3294231,152.49222 11.404765,152.45577 11.4801069,152.42175 C11.6793983,152.32941 11.8835504,152.24922 12.0877026,152.17146 C12.1581837,152.14473 12.2310951,152.118 12.3015762,152.09127 C12.5057284,152.02323 12.7147413,151.96005 12.9237542,151.90416 C13.0088176,151.88229 13.0914506,151.86042 13.176514,151.84098 C13.373375,151.79238 13.5726664,151.75593 13.7719578,151.72191 C13.8788946,151.70247 13.9858315,151.68546 14.0927683,151.67331 C14.275047,151.64658 14.4573257,151.62957 14.6420348,151.61742 C14.7708451,151.61013 14.8996554,151.60284 15.0308961,151.59798 C15.208314,151.59312 15.3857319,151.59312 15.5631499,151.59555 C15.6870994,151.60041 15.8110489,151.6077 15.9349984,151.61742 C16.1318594,151.62957 16.3287204,151.64901 16.5255814,151.67331 C16.6155056,151.68546 16.7054298,151.70004 16.7929235,151.71462 C17.0238099,151.7535 17.2546963,151.79724 17.4831522,151.85313 C17.5366207,151.86771 17.5900891,151.88229 17.6435575,151.89687 C17.8987477,151.96248 18.1563683,152.04267 18.4091281,152.13258 C18.4455838,152.14716 18.4796092,152.15931 18.5160649,152.17146 C18.7712551,152.26866 19.0215845,152.37558 19.2670532,152.48979 C19.3108001,152.51166 19.3521166,152.53353 19.3934331,152.55054 C19.6194587,152.66232 19.8381931,152.78382 20.0496364,152.90775 C20.1079656,152.9442 20.1662948,152.97822 20.224624,153.01467 C20.4166242,153.13374 20.6013333,153.26253 20.7811816,153.39375 C20.8492323,153.44478 20.917283,153.49338 20.9829034,153.54684 C21.1505998,153.67563 21.3085747,153.81171 21.4665495,153.95265 C21.5346003,154.01097 21.602651,154.07415 21.6682713,154.1349 C21.8213854,154.2807 21.9696388,154.43136 22.110601,154.58931 C22.1664998,154.65006 22.2223986,154.71081 22.275867,154.77156 C22.4241203,154.94166 22.5650825,155.12148 22.6987536,155.29887 C22.7376397,155.3499 22.7765258,155.40336 22.8129816,155.45439 C22.9563742,155.65365 23.0876148,155.85777 23.2139947,156.06432 C23.2382986,156.10563 23.2626024,156.14451 23.2844758,156.18339 C23.4132861,156.40695 23.5323749,156.63294 23.6417421,156.86379 C23.6587548,156.89538 23.6757675,156.9294 23.6903498,156.96342 C23.7972866,157.19427 23.8920715,157.43241 23.9795653,157.67298 C23.9941476,157.71429 24.0111603,157.75317 24.0257426,157.79691 C24.1035148,158.0229 24.1715655,158.25375 24.2323251,158.48703 C24.2493378,158.55021 24.2663505,158.61825 24.2833631,158.68143 C24.3344012,158.89041 24.3757177,159.09939 24.409743,159.31323 C24.4243253,159.41043 24.441338,159.51249 24.4559203,159.61212 C24.4802241,159.79437 24.4972368,159.97905 24.5093887,160.16859 C24.5191103,160.29981 24.5264014,160.43103 24.5288318,160.56468 C24.5628572,161.69949 24.3927304,162.8586 23.9795653,163.99098 C22.9733868,166.75146 19.4760661,172.19466 22.4897407,173.28816 C24.4170342,173.99043 28.3469631,169.67718 29.6666609,166.05891 L29.6715217,166.06134 C30.3009908,164.33118 30.5804848,162.567 30.5804848,160.82712 L30.5974975,160.82712 C30.5974975,160.69833 30.5829152,160.5744 30.5780544,160.45047 C30.5707633,160.19046 30.5586114,159.92802 30.5391683,159.67044 C30.5197252,159.40557 30.492991,159.13827 30.4589657,158.87826 C30.4322315,158.66685 30.3982061,158.45544 30.3617504,158.24646 C30.3082819,157.94028 30.2499528,157.63653 30.1794717,157.33764 C30.1405855,157.17969 30.099269,157.02417 30.0603829,156.87108 C29.9680284,156.53088 29.8708131,156.19797 29.7565851,155.86992 C29.7152686,155.74842 29.6690913,155.63178 29.6253444,155.51514 C29.4965341,155.16522 29.3580023,154.82502 29.2048882,154.48968 C29.1562805,154.38033 29.1028121,154.27584 29.0517741,154.16649 C28.8913688,153.83601 28.7236724,153.51282 28.5413937,153.19692 C28.473343,153.07785 28.3980011,152.96121 28.32752,152.84457 C28.1476717,152.55297 27.9629626,152.26623 27.7661016,151.98678 C27.6664559,151.84584 27.5643798,151.71462 27.4598734,151.57854 C27.2727339,151.33068 27.0831641,151.08768 26.8790119,150.85197 C26.7477712,150.70131 26.6141002,150.55794 26.4779988,150.40971 C26.2811378,150.20073 26.0842767,149.99418 25.8776942,149.79492 C25.8023524,149.72445 25.7221497,149.65155 25.6419471,149.58108 L26.9665057,141.43086 C29.0031664,141.39198 30.5197252,141.11739 31.197802,140.61681 L31.197802,146.51685 L34.5177048,146.51685 L34.5177048,158.68143 L31.7519293,223.64505 L31.7519293,243 L72.9566382,243 L72.9566382,223.64748 L72.9566382,196.0038 L79.8686467,196.0038 L79.8686467,223.64748 L79.8686467,243 L121.066065,243 L121.066065,223.64748 L118.300289,158.68386 L118.300289,146.51928 L121.617761,146.51928 L121.617761,140.61924 C122.295838,141.11739 123.809967,141.39441 125.846627,141.43329 L127.173616,149.58351 C127.095844,149.65398 127.013211,149.72688 126.935439,149.79735 C126.728856,149.99661 126.531995,150.20316 126.337565,150.41214 C126.199033,150.56037 126.065362,150.70374 125.936552,150.8544 C125.732399,151.09011 125.54283,151.33311 125.35569,151.58097 C125.251184,151.71705 125.149108,151.84827 125.049462,151.98921 C124.852601,152.26623 124.667892,152.55297 124.490474,152.847 C124.417562,152.96364 124.344651,153.08028 124.2766,153.19935 C124.091891,153.51768 123.924195,153.84087 123.76622,154.16892 C123.712751,154.27827 123.659283,154.38276 123.610675,154.49211 C123.459992,154.82745 123.32146,155.16765 123.192649,155.51757 C123.146472,155.63664 123.102725,155.75328 123.061409,155.87235 C122.947181,156.2004 122.849965,156.53331 122.757611,156.87351 C122.716294,157.0266 122.674978,157.18212 122.638522,157.34007 C122.568041,157.63896 122.507281,157.94271 122.456243,158.24889 C122.419788,158.45787 122.388193,158.66928 122.361459,158.88069 C122.325003,159.1407 122.303129,159.408 122.281256,159.67287 C122.261813,159.93045 122.247231,160.19289 122.239939,160.4529 C122.237509,160.57926 122.220496,160.70319 122.220496,160.82955 L122.239939,160.82955 C122.239939,162.56943 122.519433,164.33361 123.148903,166.06377 L123.153763,166.06134 C124.473461,169.67718 128.40096,173.99286 130.330684,173.29059 C133.341928,172.19709 129.847037,166.75389 128.840859,163.99341 C128.430124,162.86103 128.262428,161.70192 128.294023,160.56711 C128.296453,160.43346 128.303744,160.30224 128.313466,160.17102 C128.328048,159.98391 128.345061,159.79923 128.366934,159.61455 C128.381517,159.51492 128.398529,159.41286 128.415542,159.31566 C128.451998,159.10182 128.490884,158.89284 128.541922,158.68386 C128.556504,158.62068 128.575947,158.55264 128.59296,158.48946 C128.653719,158.25375 128.72177,158.02533 128.799542,157.79934 C128.816555,157.7556 128.831137,157.71672 128.84815,157.67541 C128.933213,157.43484 129.030429,157.1967 129.137366,156.96585 C129.151948,156.93183 129.168961,156.89781 129.185973,156.86622 C129.297771,156.63294 129.41686,156.40938 129.543239,156.18582 C129.567543,156.14694 129.591847,156.10806 129.613721,156.06675 C129.740101,155.8602 129.871341,155.65608 130.014734,155.45682 C130.05362,155.40579 130.090076,155.35233 130.128962,155.3013 C130.265063,155.12391 130.403595,154.94652 130.554279,154.77399 C130.605317,154.71324 130.663646,154.65249 130.719545,154.59174 C130.862937,154.43622 131.00876,154.28313 131.161874,154.13733 C131.227495,154.07658 131.297976,154.0134 131.363596,153.95508 C131.519141,153.81414 131.679546,153.67806 131.844812,153.54927 C131.910432,153.49581 131.983344,153.44721 132.048964,153.39618 C132.228812,153.26253 132.413522,153.13617 132.605522,153.0171 C132.65899,152.98065 132.71975,152.94663 132.778079,152.91018 C132.989522,152.78382 133.208257,152.66232 133.434282,152.55297 C133.478029,152.53353 133.519346,152.51166 133.563093,152.49222 C133.806131,152.37801 134.05646,152.27109 134.314081,152.17389 C134.350537,152.16174 134.384562,152.14959 134.421018,152.13501 C134.673777,152.0451 134.931398,151.96734 135.186588,151.8993 C135.240057,151.88472 135.293525,151.87014 135.346993,151.85556 C135.57788,151.8021 135.806336,151.75593 136.037222,151.71705 C136.124716,151.70247 136.21464,151.68789 136.304564,151.67574 C136.501425,151.64901 136.698286,151.62957 136.895147,151.61985 C137.019097,151.61013 137.143046,151.60284 137.264565,151.59798 C137.441983,151.59555 137.619401,151.59555 137.79925,151.60041 C137.92806,151.60527 138.05444,151.61256 138.185681,151.61985 C138.367959,151.63443 138.550238,151.65144 138.734947,151.67574 C138.841884,151.68789 138.948821,151.7049 139.055758,151.72434 C139.257479,151.75836 139.456771,151.79481 139.651201,151.84341 C139.736265,151.86528 139.818898,151.88715 139.903961,151.90659 C140.115404,151.96248 140.321987,152.02566 140.526139,152.0937 C140.599051,152.12043 140.671962,152.14716 140.742443,152.17389 C140.949026,152.24922 141.150747,152.32941 141.350039,152.42418 C141.425381,152.4582 141.500723,152.49465 141.576064,152.5311 C141.760774,152.62101 141.943052,152.71578 142.122901,152.81784 C142.215255,152.8713 142.305179,152.92719 142.395103,152.98308 C142.545787,153.07542 142.696471,153.17262 142.844724,153.27468 C142.956522,153.35487 143.065889,153.43749 143.175256,153.52497 C143.291915,153.61488 143.408573,153.70479 143.522801,153.80199 C143.649181,153.90891 143.7707,154.02069 143.889789,154.1349 C143.977283,154.21995 144.067207,154.305 144.154701,154.39248 C144.28108,154.5237 144.4026,154.65735 144.519258,154.79586 C144.592169,154.88091 144.667511,154.96596 144.737992,155.05587 C144.85222,155.19924 144.961588,155.34504 145.066094,155.49327 C145.136575,155.5929 145.207056,155.69253 145.272677,155.79216 C145.365031,155.93796 145.452525,156.08133 145.537588,156.23199 C145.605639,156.35349 145.67369,156.47499 145.73931,156.59892 C145.807361,156.73743 145.875411,156.87594 145.938601,157.01688 C146.004222,157.16268 146.067412,157.30605 146.123311,157.45671 C146.534045,158.50404 146.769792,159.63642 146.769792,160.82955 L146.772223,160.82955 C146.772223,163.76985 145.627512,170.07084 148.833187,170.07084 C150.886861,170.07084 152.933243,164.6082 152.828737,160.82955 C152.823876,158.99247 152.483622,157.23801 151.890609,155.60748 Z M11.0280557,134.70705 L14.4087181,115.2792 C14.7149463,111.7557 18.3945458,113.76288 18.3945458,113.76288 L21.6391067,134.68275 C14.2799078,133.61112 11.0280557,134.70705 11.0280557,134.70705 Z M98.3956242,15.78285 C99.6501824,15.78285 100.665432,17.53245 100.665432,19.68786 L100.665432,51.96798 C100.665432,54.12582 99.6477652,55.87299 98.3956242,55.87299 L76.0045405,55.87299 L76.0045405,50.33988 C75.9706989,50.33988 75.9706989,38.82087 76.0045405,15.78285 L98.3956242,15.78285 Z M91.033825,61.07805 L91.033825,66.28554 L78.0166951,66.28554 L78.0166951,61.07805 L91.033825,61.07805 Z M74.6287415,2.76534 L87.6458715,2.76534 L87.6458715,7.97283 L74.6287415,7.97283 L74.6287415,2.76534 Z M66.7713142,29.89629 C68.4823036,29.89629 69.8676218,31.28382 69.8676218,32.99211 C69.8676218,34.70283 68.4823036,36.09036 66.7713142,36.09036 C65.0603247,36.09036 63.6725762,34.70283 63.6725762,32.99211 C63.6725762,31.28382 65.0603247,29.89629 66.7713142,29.89629 Z M67.4712644,224.38863 L37.2664677,224.38863 L37.2664677,220.83111 L67.468834,220.83111 L67.468834,224.38863 L67.4712644,224.38863 Z M60.9140918,142.09911 L78.2913283,71.37396 L102.206294,71.28648 C104.364474,71.28648 106.109489,73.10898 106.109489,75.35673 L114.350917,141.85854 L60.9140918,142.09911 Z M73.5885377,152.71335 L73.5885377,146.7234 L114.205094,146.7234 L114.205094,152.71335 L73.5885377,152.71335 Z M115.507779,224.38863 L85.3054129,224.38863 L85.3054129,220.83111 L115.507779,220.83111 L115.507779,224.38863 Z M126.17959,115.22574 L114.725196,79.82064 C118.890872,78.7806 122.536446,83.98566 122.536446,83.98566 L135.033474,112.10076 L126.17959,115.22574 Z" id="Shape" fill="#000000"></path>
                <path d="M84.8339187,45.73017 L83.1715369,45.73017 C83.1715369,47.10798 79.9925962,48.64617 75.7199834,48.68262 L75.7199834,50.34231 C80.9234328,50.30343 84.8339187,48.33513 84.8339187,45.73017 Z" id="Path" fill="#000000" transform="translate(80.276951, 48.036240) scale(1, -1) translate(-80.276951, -48.036240) "></path>
                <path d="M75.1123877,45.73017 L73.4500059,45.73017 C73.4500059,47.10798 70.2710653,48.64617 65.9984524,48.68262 L65.9984524,50.34231 C71.2019019,50.30343 75.1123877,48.33513 75.1123877,45.73017 Z" id="Path" fill="#FFFFFF" transform="translate(70.555420, 48.036240) scale(-1, -1) translate(-70.555420, -48.036240) "></path>
            </g>
        </g>
    </g>
</svg>